<?xml version="1.0" standalone="no"?>
<!DOCTYPE svg PUBLIC "-//W3C//DTD SVG 20010904//EN"
 "http://www.w3.org/TR/2001/REC-SVG-20010904/DTD/svg10.dtd">
<svg version="1.0" xmlns="http://www.w3.org/2000/svg"
 width="208.000000pt" height="208.000000pt" viewBox="0 0 208.000000 208.000000"
 preserveAspectRatio="xMidYMid meet">
<metadata>
Created by potrace 1.14, written by Peter Selinger 2001-2017
</metadata>
<g transform="translate(0.000000,208.000000) scale(0.100000,-0.100000)"
fill="#000000" stroke="none">
<path d="M359 2003 c-26 -6 -29 -33 -29 -245 0 -109 -3 -199 -7 -199 -5 -1
-73 -2 -152 -3 -128 -1 -144 -3 -157 -21 -11 -15 -14 -70 -14 -267 0 -220 2
-250 17 -268 16 -18 30 -20 165 -20 l148 0 0 -165 c0 -91 -3 -165 -7 -166 -5
-1 -73 -2 -152 -3 -128 -2 -145 -4 -157 -21 -22 -29 -20 -502 2 -533 l15 -22
1009 0 1009 0 15 22 c13 19 16 61 16 258 0 129 -3 245 -6 257 -9 32 -33 37
-184 38 l-135 0 -3 168 -2 167 146 0 c199 0 184 -23 184 279 0 130 -3 246 -6
258 -3 12 -16 26 -28 30 -11 4 -228 7 -481 8 l-460 0 -5 211 c-4 158 -8 215
-19 227 -12 15 -49 17 -360 16 -190 -1 -353 -3 -362 -6z m621 -281 l0 -167
-262 0 -263 0 -3 168 -2 167 265 0 265 0 0 -168z m-335 -291 c7 -1 10 -59 10
-163 l0 -163 -266 -3 -266 -2 0 167 0 168 256 -1 c141 -1 261 -2 266 -3z m660
-164 l0 -167 -265 2 -265 3 -1 155 c0 85 1 160 3 165 2 7 97 10 266 10 l262
-1 0 -167z m650 148 c2 -11 3 -86 3 -167 l0 -148 -267 0 -266 0 0 163 c-1 89
2 164 6 167 4 3 122 5 263 5 249 0 257 -1 261 -20z m-977 -602 l-3 -168 -260
0 -260 0 -3 168 -2 167 265 0 265 0 -2 -167z m650 0 l-3 -167 -263 -1 -262 0
0 168 0 167 265 0 265 0 -2 -167z m-978 -300 c3 -7 5 -81 5 -165 l-1 -153
-265 -3 -266 -2 0 167 0 168 261 0 c198 0 262 -3 266 -12z m655 -146 c0 -87
-2 -162 -5 -168 -4 -6 -104 -8 -266 -7 l-259 3 -1 160 c0 88 1 162 2 165 1 3
121 5 265 5 l263 0 1 -158z m651 -10 l1 -167 -266 0 -266 0 0 163 c0 89 3 164
6 167 4 3 124 5 266 5 l258 0 1 -168z"/>
</g>
</svg>
