<svg width="50.483398" height="46.173828" viewBox="0 0 50.4834 46.1738" fill="none" xmlns="http://www.w3.org/2000/svg" xmlns:xlink="http://www.w3.org/1999/xlink">
	<desc>
			Created with Pixso.
	</desc>
	<defs/>
	<path id="Vector" d="M39.2949 1.17578C33.126 0.527344 27.5791 5.01953 26.9307 11.1875L25.8037 21.9102C25.7227 22.6836 26.2832 23.375 27.0547 23.457L27.5215 23.5059L26.3457 34.6934C25.8047 39.834 29.5479 44.457 34.6895 44.9961C39.8301 45.5371 44.4521 41.7949 44.9922 36.6543L46.1689 25.4648L46.6348 25.5137C47.4072 25.5957 48.0986 25.0352 48.1807 24.2617L49.3076 13.541C49.9561 7.37109 45.4639 1.82422 39.2949 1.17578ZM39.001 3.97266C43.6279 4.45898 46.9961 8.61914 46.5098 13.2461L46.1182 16.9766L29.3359 15.2109L29.7275 11.4824C30.2139 6.85547 34.374 3.48633 39.001 3.97266ZM28.748 20.8066L29.042 18.0098L45.8242 19.7734L45.5303 22.5703L28.748 20.8066ZM42.1953 36.3594C41.8174 39.959 38.582 42.5781 34.9834 42.1992C31.3848 41.8223 28.7646 38.5859 29.1426 34.9883L30.3184 23.7988L43.3711 25.1719L42.1953 36.3594Z" fill="#FF5A30" fill-opacity="1.000000" fill-rule="nonzero"/>
	<path id="Vector" d="M33.4121 39.2051L37.1416 39.5977C37.9141 39.6797 38.6064 39.1191 38.6875 38.3457C38.7686 37.5742 38.208 36.8828 37.4355 36.8008L33.7061 36.4082C32.9336 36.3281 32.2422 36.8887 32.1602 37.6602C32.0791 38.4336 32.6396 39.125 33.4121 39.2051Z" fill="#FF5A30" fill-opacity="1.000000" fill-rule="nonzero"/>
	<path id="Vector" d="M11.1885 1.17578C5.01953 1.82422 0.527344 7.37109 1.17578 13.5391L2.30273 24.2617C2.38379 25.0352 3.07617 25.5957 3.84863 25.5137L4.31445 25.4648L5.49023 36.6523C6.03125 41.7949 10.6533 45.5371 15.7939 44.9961C20.9355 44.457 24.6777 39.834 24.1377 34.6934L22.9619 23.5039L23.4277 23.4551C24.2002 23.375 24.7607 22.6816 24.6797 21.9102L23.5527 11.1875C22.9043 5.01953 17.3574 0.527344 11.1885 1.17578ZM4.95312 22.5703L4.65918 19.7734L21.4414 18.0078L21.7354 20.8066L4.95312 22.5703ZM21.3408 34.9863C21.7188 38.5859 19.0986 41.8223 15.5 42.1992C11.9014 42.5781 8.66602 39.957 8.28809 36.3594L7.11133 25.1699L20.165 23.7988L21.3408 34.9863ZM21.1475 15.2109L4.36523 16.9746L3.97266 13.2461C3.48633 8.61914 6.85547 4.45898 11.4824 3.97266C16.1094 3.48633 20.2695 6.85547 20.7559 11.4824L21.1475 15.2109Z" fill="#FF5A30" fill-opacity="1.000000" fill-rule="nonzero"/>
	<path id="Vector" d="M13.3418 39.5996L17.0713 39.207C17.8438 39.127 18.4043 38.4336 18.3232 37.6621C18.2422 36.8887 17.5498 36.3281 16.7773 36.4102L13.0479 36.8027C12.2754 36.8828 11.7148 37.5762 11.7969 38.3477C11.8779 39.1211 12.5693 39.6797 13.3418 39.5996Z" fill="#FF5A30" fill-opacity="1.000000" fill-rule="nonzero"/>
</svg>
