<svg width="84.000000" height="48.000000" viewBox="0 0 84 48" fill="none" xmlns="http://www.w3.org/2000/svg" xmlns:xlink="http://www.w3.org/1999/xlink">
	<desc>
			Created with Pixso.
	</desc>
	<defs/>
	<circle id="shape" cx="60.000000" cy="24.000000" r="24.000000" fill="#FF5A30" fill-opacity="1.000000"/>
	<path id="Line (Stroke)" d="M62.793 18.793C63.1836 18.4023 63.8164 18.4023 64.207 18.793L68.707 23.293C69.0977 23.6836 69.0977 24.3164 68.707 24.707L64.207 29.207C63.8164 29.5977 63.1836 29.5977 62.793 29.207C62.4023 28.8164 62.4023 28.1836 62.793 27.793L65.5859 25L52 25C51.4473 25 51 24.5527 51 24C51 23.4473 51.4473 23 52 23L65.5859 23L62.793 20.207C62.4023 19.8164 62.4023 19.1836 62.793 18.793Z" fill="#FFFFFF" fill-opacity="1.000000" fill-rule="evenodd"/>
	<path id="Line (Stroke)" d="M9.20703 29.207C8.81641 29.5977 8.18359 29.5977 7.79297 29.207L3.29297 24.707C2.90234 24.3164 2.90234 23.6836 3.29297 23.293L7.79297 18.793C8.18359 18.4023 8.81641 18.4023 9.20703 18.793C9.59766 19.1836 9.59766 19.8164 9.20703 20.207L6.41406 23L20 23C20.5527 23 21 23.4473 21 24C21 24.5527 20.5527 25 20 25L6.41406 25L9.20703 27.793C9.59766 28.1836 9.59766 28.8164 9.20703 29.207Z" fill="#424551" fill-opacity="1.000000" fill-rule="evenodd"/>
</svg>
